<svg width="47" height="46" viewBox="0 0 47 46" fill="none" xmlns="http://www.w3.org/2000/svg">
<path d="M23.6916 45.3025C36.0487 45.3025 46.0661 35.2851 46.0661 22.9281C46.0661 10.571 36.0487 0.553589 23.6916 0.553589C11.3345 0.553589 1.31714 10.571 1.31714 22.9281C1.31714 35.2851 11.3345 45.3025 23.6916 45.3025Z" fill="url(#paint0_linear_48_28)" stroke="black" stroke-linecap="round" stroke-linejoin="round"/>
<path d="M26.6446 23.7256C26.2555 23.8964 25.7935 24.0319 25.2849 24.1244C24.7764 24.2169 24.2312 24.2645 23.6807 24.2645C23.1302 24.2645 22.5852 24.2169 22.0766 24.1244C21.5681 24.0319 21.106 23.8964 20.7169 23.7256" fill="white"/>
<path d="M26.6446 23.7256C26.2555 23.8964 25.7935 24.0319 25.2849 24.1244C24.7764 24.2169 24.2312 24.2645 23.6807 24.2645C23.1302 24.2645 22.5852 24.2169 22.0766 24.1244C21.5681 24.0319 21.106 23.8964 20.7169 23.7256" stroke="black" stroke-linecap="round" stroke-linejoin="round"/>
<path d="M18.3511 17.6845C19.0743 17.6845 19.6606 17.0983 19.6606 16.375C19.6606 15.6518 19.0743 15.0656 18.3511 15.0656C17.6279 15.0656 17.0416 15.6518 17.0416 16.375C17.0416 17.0983 17.6279 17.6845 18.3511 17.6845Z" fill="black" stroke="black" stroke-linecap="round" stroke-linejoin="round"/>
<path d="M28.2994 17.6845C29.0226 17.6845 29.6088 17.0983 29.6088 16.375C29.6088 15.6518 29.0226 15.0656 28.2994 15.0656C27.5761 15.0656 26.9899 15.6518 26.9899 16.375C26.9899 17.0983 27.5761 17.6845 28.2994 17.6845Z" fill="black" stroke="black" stroke-linecap="round" stroke-linejoin="round"/>
<defs>
<linearGradient id="paint0_linear_48_28" x1="23.6916" y1="0.553589" x2="23.6916" y2="45.3025" gradientUnits="userSpaceOnUse">
<stop offset="0.326022" stop-color="#2298FF"/>
<stop offset="0.734375" stop-color="#47BDFF"/>
</linearGradient>
</defs>
</svg>
