<svg width="47" height="47" viewBox="0 0 47 47" fill="none" xmlns="http://www.w3.org/2000/svg">
<path d="M23.2368 46.0458C35.5939 46.0458 45.6112 36.0284 45.6112 23.6713C45.6112 11.3143 35.5939 1.29688 23.2368 1.29688C10.8797 1.29688 0.862305 11.3143 0.862305 23.6713C0.862305 36.0284 10.8797 46.0458 23.2368 46.0458Z" fill="url(#paint0_linear_48_35)" stroke="black" stroke-linecap="round" stroke-linejoin="round"/>
<path d="M30.7328 23.6714C29.7519 24.6531 28.5871 25.4319 27.305 25.9632C26.023 26.4946 24.6488 26.7681 23.261 26.7681C21.8733 26.7681 20.4993 26.4946 19.2173 25.9632C17.9353 25.4319 16.7704 24.6531 15.7896 23.6714" stroke="black" stroke-linecap="round" stroke-linejoin="round"/>
<path d="M30.7328 23.6714C29.7519 24.6531 28.5871 25.4319 27.305 25.9632C26.023 26.4946 24.6488 26.7681 23.261 26.7681C21.8733 26.7681 20.4993 26.4946 19.2173 25.9632C17.9353 25.4319 16.7704 24.6531 15.7896 23.6714" stroke="black" stroke-opacity="0.2" stroke-linecap="round" stroke-linejoin="round"/>
<path d="M17.8964 18.4278C18.6196 18.4278 19.2059 17.8415 19.2059 17.1183C19.2059 16.3951 18.6196 15.8088 17.8964 15.8088C17.1732 15.8088 16.5869 16.3951 16.5869 17.1183C16.5869 17.8415 17.1732 18.4278 17.8964 18.4278Z" fill="black" stroke="black" stroke-linecap="round" stroke-linejoin="round"/>
<path d="M27.8448 18.4278C28.568 18.4278 29.1542 17.8415 29.1542 17.1183C29.1542 16.3951 28.568 15.8088 27.8448 15.8088C27.1216 15.8088 26.5353 16.3951 26.5353 17.1183C26.5353 17.8415 27.1216 18.4278 27.8448 18.4278Z" fill="black" stroke="black" stroke-linecap="round" stroke-linejoin="round"/>
<defs>
<linearGradient id="paint0_linear_48_35" x1="23.2368" y1="1.29687" x2="23.2368" y2="46.0458" gradientUnits="userSpaceOnUse">
<stop offset="0.046875" stop-color="#00D1C5"/>
<stop offset="1" stop-color="#5FE452"/>
</linearGradient>
</defs>
</svg>
