<svg width="47" height="47" viewBox="0 0 47 47" fill="none" xmlns="http://www.w3.org/2000/svg">
<path d="M23.1464 45.5931C35.5035 45.5931 45.5209 35.5757 45.5209 23.2186C45.5209 10.8615 35.5035 0.844116 23.1464 0.844116C10.7894 0.844116 0.771973 10.8615 0.771973 23.2186C0.771973 35.5757 10.7894 45.5931 23.1464 45.5931Z" fill="#FFE500" stroke="black" stroke-linecap="round" stroke-linejoin="round"/>
<path d="M20.9316 23.0623H25.3613" stroke="black" stroke-linecap="round" stroke-linejoin="round"/>
<path d="M17.8112 17.9751C18.5344 17.9751 19.1207 17.3888 19.1207 16.6656C19.1207 15.9424 18.5344 15.3561 17.8112 15.3561C17.088 15.3561 16.5017 15.9424 16.5017 16.6656C16.5017 17.3888 17.088 17.9751 17.8112 17.9751Z" fill="black" stroke="black" stroke-linecap="round" stroke-linejoin="round"/>
<path d="M26.87 18.013C27.5933 18.013 28.1795 17.4267 28.1795 16.7035C28.1795 15.9803 27.5933 15.394 26.87 15.394C26.1468 15.394 25.5605 15.9803 25.5605 16.7035C25.5605 17.4267 26.1468 18.013 26.87 18.013Z" fill="black" stroke="black" stroke-linecap="round" stroke-linejoin="round"/>
</svg>
