<svg width="73" height="30" viewBox="0 0 73 30" fill="none" xmlns="http://www.w3.org/2000/svg">
<path d="M0.977625 23L10.9616 0.599998H16.0816L26.0976 23H20.6576L12.4656 3.224H14.5136L6.28963 23H0.977625ZM5.96962 18.2L7.34563 14.264H18.8656L20.2736 18.2H5.96962ZM29.3394 29.464C28.4434 29.464 27.558 29.3253 26.6834 29.048C25.8087 28.7707 25.094 28.3867 24.5394 27.896L26.3634 24.344C26.7474 24.6853 27.1847 24.952 27.6754 25.144C28.1874 25.336 28.6887 25.432 29.1794 25.432C29.8834 25.432 30.438 25.2613 30.8434 24.92C31.27 24.6 31.654 24.056 31.9954 23.288L32.8914 21.176L33.2754 20.632L39.4514 5.784H44.2514L36.4754 24.056C35.9207 25.4427 35.2807 26.5307 34.5554 27.32C33.8514 28.1093 33.062 28.664 32.1874 28.984C31.334 29.304 30.3847 29.464 29.3394 29.464ZM32.2834 23.672L24.6034 5.784H29.7554L35.7074 20.184L32.2834 23.672ZM54.0116 23.256C52.177 23.256 50.545 22.872 49.1156 22.104C47.7076 21.336 46.5876 20.2907 45.7556 18.968C44.945 17.624 44.5396 16.0987 44.5396 14.392C44.5396 12.664 44.945 11.1387 45.7556 9.816C46.5876 8.472 47.7076 7.42667 49.1156 6.68C50.545 5.912 52.177 5.528 54.0116 5.528C55.825 5.528 57.4463 5.912 58.8756 6.68C60.305 7.42667 61.425 8.46133 62.2356 9.784C63.0463 11.1067 63.4516 12.6427 63.4516 14.392C63.4516 16.0987 63.0463 17.624 62.2356 18.968C61.425 20.2907 60.305 21.336 58.8756 22.104C57.4463 22.872 55.825 23.256 54.0116 23.256ZM54.0116 19.16C54.8436 19.16 55.5903 18.968 56.2516 18.584C56.913 18.2 57.4356 17.656 57.8196 16.952C58.2036 16.2267 58.3956 15.3733 58.3956 14.392C58.3956 13.3893 58.2036 12.536 57.8196 11.832C57.4356 11.128 56.913 10.584 56.2516 10.2C55.5903 9.816 54.8436 9.624 54.0116 9.624C53.1796 9.624 52.433 9.816 51.7716 10.2C51.1103 10.584 50.577 11.128 50.1716 11.832C49.7876 12.536 49.5956 13.3893 49.5956 14.392C49.5956 15.3733 49.7876 16.2267 50.1716 16.952C50.577 17.656 51.1103 18.2 51.7716 18.584C52.433 18.968 53.1796 19.16 54.0116 19.16ZM67.1404 15.224L66.1484 0.599998H72.1004L71.1084 15.224H67.1404ZM69.1244 23.256C68.2284 23.256 67.4924 22.968 66.9164 22.392C66.3404 21.816 66.0524 21.1333 66.0524 20.344C66.0524 19.5333 66.3404 18.8613 66.9164 18.328C67.4924 17.7733 68.2284 17.496 69.1244 17.496C70.0417 17.496 70.7777 17.7733 71.3324 18.328C71.9084 18.8613 72.1964 19.5333 72.1964 20.344C72.1964 21.1333 71.9084 21.816 71.3324 22.392C70.7777 22.968 70.0417 23.256 69.1244 23.256Z" fill="white"/>
</svg>
